<?xml version="1.0" encoding="utf-8"?>
<!-- Generator: Adobe Illustrator 23.0.0, SVG Export Plug-In . SVG Version: 6.00 Build 0)  -->
<svg version="1.1" id="Livello_1" xmlns="http://www.w3.org/2000/svg" xmlns:xlink="http://www.w3.org/1999/xlink" x="0px" y="0px"
	 viewBox="0 0 512 512" style="enable-background:new 0 0 512 512;" xml:space="preserve">
<style type="text/css">
	.st0{fill:none;}
	.st1{fill:#FFFFFF;stroke:#000000;stroke-width:22;stroke-miterlimit:10;}
	.st2{fill:none;stroke:#000000;stroke-width:32.5;stroke-miterlimit:10;}
	.st3{font-family:'ArialRoundedMTBold';}
	.st4{font-size:55px;}
</style>
<title>Business</title>
<path class="st0" d="M0,0"/>
<path class="st0" d="M0,0"/>
<path d="M0,0"/>
<g>
	<path class="st1" d="M295.1,362H104.7V65.2c0-15.7,12.7-28.3,28.3-28.3H264c17.2,0,31.2,14,31.2,31.2V362z"/>
	<path class="st1" d="M413,362H295.1V161.1h89.5c15.7,0,28.3,12.7,28.3,28.3V362z"/>
	<ellipse cx="148.8" cy="85.3" rx="16.1" ry="14.7"/>
	<ellipse cx="252" cy="85.3" rx="16.1" ry="14.7"/>
	<ellipse cx="200.4" cy="85.3" rx="16.1" ry="14.7"/>
	<ellipse cx="147.8" cy="137.4" rx="16.1" ry="14.7"/>
	<ellipse cx="251" cy="137.4" rx="16.1" ry="14.7"/>
	<ellipse cx="199.4" cy="137.4" rx="16.1" ry="14.7"/>
	<ellipse cx="147.8" cy="193.7" rx="16.1" ry="14.7"/>
	<ellipse cx="251" cy="193.7" rx="16.1" ry="14.7"/>
	<ellipse cx="199.4" cy="193.7" rx="16.1" ry="14.7"/>
	<ellipse cx="148.8" cy="250" rx="16.1" ry="14.7"/>
	<ellipse cx="252" cy="250" rx="16.1" ry="14.7"/>
	<ellipse cx="200.4" cy="250" rx="16.1" ry="14.7"/>
	<ellipse cx="147.8" cy="306.3" rx="16.1" ry="14.7"/>
	<ellipse cx="251" cy="306.3" rx="16.1" ry="14.7"/>
	<ellipse cx="199.4" cy="306.3" rx="16.1" ry="14.7"/>
	<line class="st2" x1="199.4" y1="306.3" x2="199.4" y2="357.5"/>
	<ellipse cx="328.8" cy="195.8" rx="16.1" ry="14.7"/>
	<ellipse cx="380.4" cy="195.8" rx="16.1" ry="14.7"/>
	<ellipse cx="327.7" cy="247.9" rx="16.1" ry="14.7"/>
	<ellipse cx="379.3" cy="247.9" rx="16.1" ry="14.7"/>
	<ellipse cx="327.7" cy="304.2" rx="16.1" ry="14.7"/>
	<ellipse cx="379.3" cy="304.2" rx="16.1" ry="14.7"/>
</g>
<rect x="19" y="382.2" class="st0" width="471.4" height="124.6"/>
<text transform="matrix(1 0 0 1 120.5332 422.2539)"><tspan x="0" y="0" class="st3 st4">Visualizza</tspan><tspan x="63.6" y="66" class="st3 st4">Coda</tspan></text>
</svg>
