<?xml version="1.0" encoding="utf-8"?>
<!-- Generator: Adobe Illustrator 23.0.0, SVG Export Plug-In . SVG Version: 6.00 Build 0)  -->
<svg version="1.1" id="Livello_1" xmlns="http://www.w3.org/2000/svg" xmlns:xlink="http://www.w3.org/1999/xlink" x="0px" y="0px"
	 viewBox="0 0 512 512" style="enable-background:new 0 0 512 512;" xml:space="preserve">
<style type="text/css">
	.st0{fill:none;stroke:#000000;stroke-width:32;stroke-linejoin:round;}
	.st1{fill:none;stroke:#000000;stroke-width:32;stroke-linecap:round;stroke-linejoin:round;}
	.st2{fill:none;}
	.st3{font-family:'ArialRoundedMTBold';}
	.st4{font-size:74px;}
</style>
<title>Calendar</title>
<path class="st0" d="M131,79h250c20.7,0,37.5,15.8,37.5,35.3v211.5c0,19.5-16.8,35.3-37.5,35.3H131c-20.7,0-37.5-15.8-37.5-35.3
	V114.3C93.5,94.8,110.3,79,131,79z"/>
<ellipse cx="287.3" cy="190.6" rx="18.8" ry="17.6"/>
<ellipse cx="349.8" cy="190.6" rx="18.8" ry="17.6"/>
<ellipse cx="287.3" cy="249.4" rx="18.8" ry="17.6"/>
<ellipse cx="349.8" cy="249.4" rx="18.8" ry="17.6"/>
<ellipse cx="162.3" cy="249.4" rx="18.8" ry="17.6"/>
<ellipse cx="224.8" cy="249.4" rx="18.8" ry="17.6"/>
<ellipse cx="162.3" cy="308.1" rx="18.8" ry="17.6"/>
<ellipse cx="224.8" cy="308.1" rx="18.8" ry="17.6"/>
<ellipse cx="287.3" cy="308.1" rx="18.8" ry="17.6"/>
<path class="st1" d="M156,55.5V79 M356,55.5V79"/>
<path class="st0" d="M418.5,137.8h-325"/>
<rect x="24.5" y="415" class="st2" width="463" height="72"/>
<text transform="matrix(1 0 0 1 24.5 468.8721)" class="st3 st4">Prenotazioni</text>
</svg>
